<?xml version="1.0" encoding="utf-8"?>
<!-- Generator: Adobe Illustrator 16.0.0, SVG Export Plug-In . SVG Version: 6.00 Build 0)  -->
<!DOCTYPE svg PUBLIC "-//W3C//DTD SVG 1.1//EN" "http://www.w3.org/Graphics/SVG/1.1/DTD/svg11.dtd">
<svg version="1.1" id="Layer_1" xmlns="http://www.w3.org/2000/svg" xmlns:xlink="http://www.w3.org/1999/xlink" x="0px" y="0px"
	 width="200px" height="44.515px" viewBox="0 0 200 44.515" enable-background="new 0 0 200 44.515" xml:space="preserve">
<g>
	<path fill="#FFFFFF" d="M39.084,27.415c-0.25,0.273-0.516,0.536-0.796,0.791c-0.281,0.255-0.56,0.481-0.841,0.682
		c-0.281,0.203-0.559,0.364-0.832,0.489c-0.276,0.122-0.539,0.187-0.789,0.187c-0.333,0-0.551-0.153-0.652-0.463
		s-0.154-0.736-0.154-1.283c0-0.64,0.1-1.429,0.297-2.363s0.372-1.767,0.525-2.495c0.154-0.729,0.291-1.441,0.411-2.139
		c0.12-0.694,0.18-1.327,0.18-1.899c0-0.372-0.034-0.668-0.099-0.884c-0.065-0.219-0.158-0.388-0.278-0.507
		c-0.12-0.12-0.258-0.201-0.414-0.234c-0.156-0.037-0.325-0.057-0.505-0.057c-0.13,0-0.268,0.005-0.406,0.01
		c-0.137,0.008-0.272,0.01-0.402,0.01c-0.156,0-0.312-0.01-0.461-0.028c-0.15-0.019-0.297-0.058-0.442-0.117
		c-0.144-0.06-0.263-0.159-0.358-0.289c-0.097-0.132-0.195-0.268-0.297-0.408c-0.104-0.138-0.232-0.26-0.389-0.37
		c-0.155-0.109-0.371-0.164-0.647-0.164c-0.83,0-1.642,0.177-2.44,0.528c-0.799,0.349-1.559,0.822-2.279,1.418
		c-0.721,0.593-1.385,1.288-1.99,2.087c-0.606,0.796-1.174,1.741-1.702,2.836c-0.528,1.096-0.919,2.113-1.171,3.052
		s-0.377,1.855-0.377,2.748c0,0.244,0.034,0.466,0.058,0.695c-0.124-0.131-0.261-0.248-0.425-0.333
		c-0.221-0.117-0.481-0.174-0.788-0.174c-0.083,0-0.175,0.005-0.273,0.016c-0.122,0.013-0.219,0.031-0.294,0.052l-5.995,1.722
		c-0.923,0.489-1.649,0.734-2.178,0.734c-0.358,0-0.647-0.013-0.864-0.044c-0.215-0.031-0.385-0.073-0.512-0.127
		c-0.125-0.055-0.209-0.125-0.253-0.216c-0.042-0.091-0.062-0.192-0.062-0.302c0-0.047,0-0.115,0-0.198
		c0-0.086,0.005-0.239,0.011-0.463c0.005-0.224,0.016-0.551,0.025-0.989c0.047-1.025,0.073-1.907,0.073-2.646
		c1.312-0.809,2.576-1.73,3.799-2.766c1.221-1.033,2.354-2.128,3.409-3.289c1.051-1.161,2.011-2.368,2.877-3.62
		c0.864-1.249,1.608-2.505,2.228-3.762s1.099-2.5,1.434-3.734c0.339-1.233,0.505-2.412,0.505-3.536c0-0.929-0.102-1.741-0.31-2.436
		c-0.208-0.697-0.491-1.277-0.858-1.743c-0.364-0.463-0.805-0.812-1.314-1.043C21.553,0.117,20.992,0,20.384,0
		c-0.825,0-1.71,0.216-2.661,0.646c-0.947,0.432-1.91,1.08-2.884,1.946c-0.976,0.864-1.931,1.941-2.867,3.226
		c-0.937,1.283-1.804,2.784-2.597,4.499c-0.797,1.712-1.486,3.635-2.071,5.761c-0.583,2.126-1.01,4.46-1.272,7.007l-0.143,1.233
		c-0.562,0.414-1.135,0.82-1.715,1.226c-0.58,0.406-1.121,0.775-1.624,1.116c-0.502,0.336-0.938,0.63-1.312,0.877
		c-0.369,0.25-0.635,0.427-0.791,0.536c-0.189,0.133-0.314,0.312-0.367,0.536C0.025,28.833,0,29.059,0,29.288
		c0,0.273,0.045,0.552,0.133,0.83c0.091,0.281,0.213,0.534,0.369,0.76c0.156,0.227,0.328,0.406,0.513,0.544s0.38,0.206,0.583,0.206
		c0.205,0,0.666-0.221,1.385-0.661c0.718-0.442,1.592-1.036,2.622-1.788c0,0.726,0.065,1.556,0.195,2.49
		c0.13,0.932,0.362,1.645,0.687,2.136c0.328,0.497,0.773,0.887,1.338,1.179c0.564,0.289,1.288,0.435,2.168,0.435
		c0.58,0,1.181-0.023,1.805-0.067c0.622-0.044,1.229-0.151,1.814-0.32c0.585-0.167,1.162-0.333,1.734-0.497
		c0.576-0.164,1.13-0.325,1.672-0.479c1.232-0.307,2.442-0.653,3.629-1.041c0.291-0.049,0.547-0.146,0.766-0.292
		c0.219-0.148,0.4-0.32,0.543-0.523c0.146-0.2,0.256-0.416,0.328-0.648c0.046-0.146,0.053-0.3,0.069-0.451
		c0.223,0.45,0.479,0.863,0.8,1.198c0.416,0.439,0.897,0.778,1.441,1.012c0.541,0.234,1.101,0.351,1.673,0.351
		c0.542,0,1.083-0.086,1.624-0.265c0.543-0.177,1.062-0.403,1.561-0.682c0.5-0.275,0.961-0.588,1.383-0.931
		c0.421-0.341,0.775-0.677,1.063-1.01c0.386,0.958,0.843,1.689,1.374,2.188c0.527,0.505,1.189,0.754,1.982,0.754
		c0.656,0,1.312-0.161,1.97-0.489c0.655-0.325,1.271-0.723,1.845-1.194c0.572-0.471,1.088-0.965,1.549-1.485
		c0.457-0.518,0.827-0.971,1.1-1.358l-0.857-3.939C40.26,26.054,39.67,26.774,39.084,27.415z M11.381,16.887
		c0.364-1.538,0.791-2.956,1.283-4.262c0.488-1.306,1.022-2.49,1.595-3.554c0.575-1.064,1.142-1.97,1.704-2.719
		c0.562-0.752,1.101-1.327,1.616-1.733c0.515-0.403,0.962-0.606,1.345-0.606c0.322,0,0.575,0.156,0.763,0.471
		c0.185,0.315,0.278,0.817,0.278,1.504c0,0.195-0.008,0.403-0.018,0.627c-0.014,0.224-0.037,0.456-0.073,0.697
		c-0.094,0.726-0.308,1.494-0.638,2.303c-0.328,0.809-0.734,1.645-1.218,2.503c-0.486,0.856-1.03,1.717-1.632,2.581
		c-0.605,0.866-1.232,1.712-1.886,2.54c-0.651,0.83-1.31,1.621-1.973,2.375c-0.663,0.757-1.301,1.455-1.909,2.095
		C10.762,20.027,11.017,18.422,11.381,16.887z M30.842,25.14c-0.051,0.385-0.154,0.867-0.315,1.444
		c-0.161,0.575-0.375,1.134-0.638,1.676c-0.263,0.541-0.574,1.004-0.932,1.387c-0.359,0.385-0.76,0.578-1.201,0.578
		c-0.276,0-0.503-0.07-0.683-0.211c-0.179-0.143-0.322-0.328-0.432-0.557c-0.106-0.227-0.183-0.484-0.224-0.773
		c-0.042-0.289-0.062-0.588-0.062-0.897c0-0.521,0.07-1.075,0.205-1.668c0.139-0.591,0.375-1.277,0.708-2.058
		c0.336-0.781,0.674-1.439,1.022-1.97c0.346-0.534,0.724-1.007,1.135-1.421c0.414-0.414,0.851-0.744,1.316-0.986
		c0.466-0.242,0.944-0.364,1.434-0.364L30.842,25.14z"/>
	<path fill="#FFFFFF" d="M106.895,13.77c0.608,0,1.131-0.091,1.566-0.281c0.437-0.185,0.795-0.429,1.084-0.731
		c0.287-0.299,0.494-0.643,0.625-1.03c0.133-0.385,0.197-0.783,0.197-1.191c0-0.448-0.08-0.833-0.242-1.158
		c-0.16-0.325-0.377-0.585-0.652-0.786c-0.275-0.198-0.596-0.346-0.969-0.442c-0.369-0.096-0.762-0.146-1.181-0.146
		c-0.669,0-1.226,0.106-1.673,0.317c-0.447,0.21-0.807,0.471-1.074,0.778c-0.269,0.307-0.464,0.635-0.584,0.983
		c-0.119,0.349-0.18,0.664-0.18,0.939c0,0.833,0.253,1.499,0.752,1.999C105.067,13.52,105.843,13.77,106.895,13.77z"/>
	<path fill="#FFFFFF" d="M164.03,13.77c0.608,0,1.13-0.091,1.566-0.281c0.435-0.185,0.796-0.429,1.083-0.731
		c0.285-0.299,0.496-0.643,0.627-1.03c0.133-0.385,0.197-0.783,0.197-1.191c0-0.448-0.08-0.833-0.242-1.158
		c-0.161-0.325-0.379-0.585-0.652-0.786c-0.276-0.198-0.599-0.346-0.969-0.442c-0.369-0.096-0.765-0.146-1.181-0.146
		c-0.669,0-1.226,0.106-1.673,0.317c-0.451,0.21-0.807,0.471-1.075,0.778c-0.271,0.307-0.463,0.635-0.583,0.983
		c-0.119,0.349-0.18,0.664-0.18,0.939c0,0.833,0.25,1.499,0.752,1.999C162.204,13.52,162.979,13.77,164.03,13.77z"/>
	<path fill="#FFFFFF" d="M199.142,25.25c-0.599,0.804-1.189,1.525-1.774,2.165c-0.25,0.273-0.516,0.536-0.797,0.791
		c-0.28,0.255-0.56,0.481-0.84,0.682c-0.281,0.203-0.56,0.364-0.833,0.489c-0.275,0.122-0.538,0.187-0.788,0.187
		c-0.333,0-0.552-0.153-0.653-0.463s-0.153-0.736-0.153-1.283c0-0.64,0.099-1.429,0.297-2.363c0.197-0.934,0.372-1.767,0.525-2.495
		s0.291-1.441,0.411-2.139c0.119-0.694,0.18-1.327,0.18-1.899c0-0.372-0.034-0.668-0.1-0.884c-0.064-0.219-0.158-0.388-0.278-0.507
		c-0.119-0.12-0.258-0.201-0.413-0.234c-0.156-0.037-0.325-0.057-0.505-0.057c-0.131,0-0.268,0.005-0.406,0.01
		c-0.138,0.008-0.273,0.01-0.403,0.01c-0.159,0-0.312-0.01-0.46-0.028c-0.151-0.019-0.297-0.058-0.443-0.117
		c-0.143-0.06-0.262-0.159-0.358-0.289c-0.097-0.132-0.195-0.268-0.297-0.408c-0.104-0.138-0.231-0.26-0.388-0.37
		s-0.372-0.164-0.648-0.164c-0.83,0-1.641,0.177-2.439,0.528c-0.799,0.349-1.559,0.822-2.279,1.418
		c-0.721,0.593-1.385,1.288-1.991,2.087c-0.606,0.796-1.173,1.741-1.702,2.836c-0.527,1.096-0.918,2.113-1.17,3.052
		c-0.12,0.446-0.207,0.886-0.27,1.321c-0.061,0.043-0.114,0.093-0.176,0.136c-0.481,0.341-0.973,0.653-1.467,0.942
		c-0.498,0.286-0.969,0.534-1.419,0.742c-0.447,0.208-0.858,0.375-1.233,0.492c-0.38,0.12-0.691,0.18-0.941,0.18
		c-0.408,0-0.778-0.062-1.105-0.188c-0.331-0.125-0.609-0.328-0.836-0.609c-0.229-0.281-0.403-0.643-0.523-1.083
		c-0.119-0.442-0.18-0.986-0.18-1.631c0-0.25,0.004-0.523,0.012-0.822c0.004-0.299,0.012-0.609,0.025-0.931
		c0.01-0.323,0.023-0.648,0.037-0.976c0.01-0.328,0.023-0.648,0.033-0.958c0.036-0.715,0.078-1.444,0.127-2.186
		c0.3-0.37,0.625-0.783,0.979-1.244s0.705-0.929,1.055-1.405h6.882c0.286,0,0.552-0.14,0.788-0.421
		c0.239-0.281,0.359-0.643,0.359-1.087c0-0.385-0.055-0.705-0.162-0.958c-0.105-0.252-0.28-0.385-0.52-0.398
		c-0.203-0.013-0.458-0.023-0.768-0.036c-0.312-0.011-0.646-0.023-1.005-0.037c-0.356-0.01-0.729-0.021-1.108-0.031
		c-0.383-0.01-0.738-0.018-1.066-0.028c-0.328-0.011-0.617-0.026-0.869-0.052c-0.25-0.023-0.43-0.016-0.539,0.023
		c0.43-0.664,0.841-1.335,1.229-2.014c0.388-0.677,0.727-1.346,1.012-2.004c0.287-0.661,0.514-1.309,0.682-1.946
		c0.167-0.635,0.25-1.241,0.25-1.811c0-0.692-0.08-1.358-0.242-1.996c-0.16-0.637-0.39-1.194-0.689-1.673
		c-0.299-0.476-0.66-0.859-1.084-1.145c-0.425-0.286-0.893-0.429-1.408-0.429c-0.797,0-1.559,0.354-2.287,1.062
		c-0.727,0.71-1.395,1.649-2.009,2.823c-0.614,1.171-1.169,2.511-1.665,4.018c-0.492,1.504-0.9,3.06-1.223,4.667
		c-0.12,0.023-0.339,0.034-0.656,0.026c-0.317-0.005-0.68-0.016-1.08-0.026c-0.402-0.013-0.822-0.016-1.262-0.01
		c-0.438,0.008-0.838,0.037-1.205,0.086c-0.366,0.047-0.666,0.122-0.9,0.221c-0.23,0.099-0.351,0.242-0.351,0.432
		c0,0.12,0.008,0.263,0.019,0.426c0.013,0.169,0.055,0.328,0.127,0.479c0.05,0.109,0.131,0.204,0.225,0.293
		c-0.164-0.042-0.361-0.064-0.597-0.064c-0.271,0-0.572,0.031-0.908,0.099c-0.333,0.065-0.655,0.169-0.966,0.307
		c-0.312,0.138-0.59,0.317-0.834,0.534c-0.271,0.242-0.436,0.515-0.495,0.817c-0.106,0.429-0.388,1.355-0.838,2.784
		c-0.489,1.749-0.814,2.877-0.976,3.388c-0.055,0.143-0.15,0.58-0.282,1.292c-0.369,0.437-0.771,0.886-1.237,1.36
		c-0.633,0.645-1.299,1.236-1.996,1.774c-0.699,0.536-1.395,0.981-2.086,1.332c-0.692,0.354-1.324,0.528-1.9,0.528
		c-0.58,0-1.056-0.127-1.423-0.385c-0.369-0.255-0.671-0.578-0.903-0.965c-0.23-0.388-0.385-0.814-0.46-1.28
		c-0.078-0.466-0.117-0.914-0.117-1.343c0-0.286,0.011-0.643,0.036-1.067c0.023-0.424,0.086-0.866,0.186-1.332
		c0.102-0.466,0.27-1.043,0.51-1.728c0.236-0.687,0.477-1.218,0.721-1.595c0.244-0.375,0.539-0.679,0.882-0.913
		c0.347-0.232,0.763-0.349,1.249-0.349c0.203,0,0.333,0.096,0.393,0.286c0.058,0.19,0.089,0.429,0.089,0.715
		c0.013,0.336,0.005,0.549-0.019,0.646c-0.18,0.692-0.283,1.134-0.32,1.324c-0.109,0.359-0.018,0.77,0.273,1.236
		c0.175,0.299,0.567,0.448,1.168,0.448c0.404,0,0.76-0.096,1.078-0.286c0.314-0.19,0.643-0.552,0.976-1.083
		c0.338-0.531,0.564-0.994,0.679-1.39c0.117-0.393,0.175-0.793,0.175-1.199c0-0.583-0.122-1.129-0.37-1.637
		c-0.25-0.507-0.59-0.947-1.029-1.317c-0.438-0.369-0.966-0.661-1.58-0.869c-0.617-0.208-1.288-0.312-2.012-0.312
		c-0.804,0-1.54,0.146-2.214,0.437c-0.671,0.294-1.28,0.687-1.827,1.184c-0.546,0.495-1.024,1.069-1.438,1.728
		c-0.416,0.656-0.763,1.345-1.046,2.066c-0.281,0.724-0.541,1.569-0.783,2.535c-0.032,0.131-0.045,0.239-0.072,0.365
		c-0.566,0.231-1.115,0.351-1.647,0.351c-0.19,0-0.372-0.034-0.546-0.106c-0.172-0.07-0.328-0.193-0.467-0.367
		c-0.135-0.174-0.246-0.403-0.33-0.689c-0.083-0.286-0.125-0.645-0.125-1.075c0-0.25,0.029-0.564,0.089-0.939
		c0.06-0.377,0.155-0.856,0.286-1.441c0.133-0.586,0.229-1.059,0.289-1.423c0.06-0.364,0.088-0.648,0.088-0.851
		c0-0.263-0.047-0.5-0.143-0.708c-0.097-0.208-0.225-0.385-0.385-0.528c-0.162-0.143-0.35-0.252-0.565-0.331
		c-0.214-0.078-0.435-0.117-0.661-0.117c-0.658,0-1.235,0.177-1.738,0.528c-0.502,0.352-0.949,0.786-1.342,1.298
		s-0.771,1.158-1.129,1.933c-0.357,0.775-0.656,1.403-0.896,1.881h-0.195c-0.023-0.609-0.008-1.319,0.052-2.131
		c0.061-0.812,0.092-1.439,0.092-1.881c0-0.369-0.011-0.661-0.029-0.877c-0.016-0.213-0.067-0.377-0.15-0.492
		c-0.084-0.114-0.214-0.185-0.385-0.216c-0.175-0.029-0.414-0.044-0.727-0.044c-0.273,0-0.505,0.016-0.689,0.044
		c-0.186,0.031-0.338,0.091-0.466,0.18c-0.125,0.091-0.234,0.213-0.331,0.367c-0.096,0.156-0.189,0.364-0.285,0.627
		c-0.156,0.393-0.311,0.895-0.467,1.504s-0.34,1.372-0.554,2.285c-0.022,0.097-0.04,0.188-0.062,0.283
		c-0.259-0.315-0.517-0.63-0.788-0.957c-0.747-0.895-1.551-1.637-2.418-2.228c-0.865-0.59-1.792-1.064-2.783-1.416
		c-0.992-0.351-2.053-0.528-3.188-0.528c-1.324,0-2.52,0.242-3.58,0.726c-1.064,0.484-1.963,1.145-2.696,1.988
		c-0.733,0.84-1.298,1.832-1.69,2.971c-0.092,0.264-0.17,0.542-0.24,0.83c-0.324,0.113-0.637,0.216-0.926,0.299
		c-0.93,0.268-1.768,0.46-2.506,0.572c-0.739,0.115-1.421,0.193-2.04,0.234c-0.622,0.042-1.267,0.114-1.937,0.224l1.005-3.278
		c0.06-0.18,0.13-0.419,0.214-0.716c0.096-0.322,0.191-0.663,0.285-1.022c0.097-0.356,0.178-0.692,0.242-1.001
		c0.065-0.31,0.1-0.536,0.1-0.682c0-0.273-0.092-0.536-0.279-0.786c-0.184-0.252-0.486-0.377-0.902-0.377
		c-0.273,0-0.549,0.011-0.828,0.029c-0.275,0.016-0.543,0.062-0.801,0.135c-0.255,0.07-0.489,0.185-0.707,0.341
		c-0.214,0.156-0.401,0.372-0.561,0.646c-0.182,0.325-0.366,0.78-0.554,1.369c-0.188,0.588-0.372,1.262-0.554,2.021
		c-0.183,0.763-0.359,1.647-0.529,2.654c-0.171,1.007-0.327,1.949-0.476,2.826c-0.068,0.41-0.134,0.801-0.2,1.203
		c-0.464,0.314-0.939,0.617-1.441,0.896c-0.752,0.421-1.525,0.77-2.318,1.051c-0.794,0.278-1.549,0.419-2.267,0.419
		c-0.226,0-0.439-0.023-0.638-0.07c-0.197-0.047-0.387-0.127-0.564-0.245c-0.182-0.117-0.356-0.281-0.533-0.489
		c-0.172-0.21-0.349-0.474-0.528-0.788c1.041-0.281,2.007-0.671,2.898-1.174c0.89-0.502,1.66-1.074,2.306-1.714
		c0.645-0.643,1.21-1.413,1.696-2.313c0.483-0.897,0.726-1.709,0.726-2.433c0-0.679-0.119-1.293-0.358-1.842
		s-0.57-1.015-0.994-1.402c-0.425-0.388-0.924-0.689-1.496-0.903c-0.575-0.216-1.196-0.323-1.866-0.323
		c-0.819,0-1.563,0.146-2.234,0.432c-0.672,0.289-1.277,0.679-1.816,1.168c-0.541,0.489-1.012,1.054-1.416,1.697
		c-0.402,0.64-0.738,1.314-1.006,2.021c-0.269,0.708-0.526,1.517-0.775,2.43c-0.25,0.914-0.375,1.699-0.375,2.36
		c0,0.266,0.036,0.52,0.055,0.78c-0.045,0.056-0.09,0.123-0.136,0.178c-0.275,0.333-0.562,0.659-0.858,0.976
		c-0.299,0.315-0.602,0.596-0.906,0.84c-0.304,0.245-0.608,0.442-0.912,0.591c-0.305,0.151-0.594,0.224-0.869,0.224
		c-0.484,0-0.856-0.117-1.111-0.352c-0.255-0.234-0.383-0.611-0.383-1.132c0-0.416,0.07-1.027,0.213-1.837
		c0.141-0.809,0.3-1.694,0.472-2.654c0.175-0.963,0.356-1.978,0.549-3.052c0.192-1.072,0.388-2.165,0.589-3.273
		c0.197-1.111,0.397-2.228,0.601-3.349c0.198-1.121,0.299-2.196,0.299-3.224c0-1.098-0.101-2.139-0.299-3.125
		c-0.203-0.983-0.495-1.842-0.872-2.579c-0.38-0.734-0.851-1.314-1.412-1.746c-0.565-0.43-1.205-0.643-1.929-0.643
		c-1.048,0-2.061,0.263-3.039,0.789c-0.976,0.523-1.886,1.28-2.731,2.264c-0.849,0.986-1.611,2.181-2.29,3.591
		c-0.679,1.408-1.252,2.995-1.715,4.762l-0.378,0.018c0.109-0.835,0.211-1.611,0.305-2.326c0.037-0.299,0.076-0.601,0.117-0.906
		c0.042-0.304,0.078-0.588,0.107-0.851c0.031-0.263,0.055-0.495,0.072-0.697c0.018-0.203,0.025-0.354,0.025-0.448
		c0-1.051-0.09-1.959-0.275-2.722c-0.185-0.765-0.445-1.397-0.78-1.899c-0.333-0.5-0.733-0.872-1.2-1.108
		c-0.465-0.239-0.973-0.359-1.521-0.359c-0.75,0-1.504,0.203-2.264,0.609c-0.763,0.406-1.515,0.978-2.259,1.72
		c-0.741,0.739-1.465,1.626-2.165,2.659c-0.699,1.03-1.363,2.183-1.984,3.456c-0.623,1.27-1.197,2.638-1.723,4.101
		c-0.525,1.46-0.981,2.987-1.369,4.574c0.211-0.851,0.427-1.767,0.65-2.745c0.225-0.981,0.406-1.967,0.552-2.963
		c0.144-0.994,0.281-1.944,0.411-2.844c0.131-0.9,0.195-1.684,0.195-2.352c0-0.872-0.057-1.665-0.169-2.381
		c-0.114-0.718-0.315-1.33-0.601-1.837c-0.287-0.507-0.675-0.9-1.164-1.181c-0.488-0.281-1.104-0.422-1.845-0.422
		c-0.572,0-1.171,0.12-1.798,0.359s-1.241,0.643-1.845,1.21c-0.604,0.564-1.177,1.324-1.72,2.274
		c-0.541,0.947-1.027,2.126-1.46,3.536c-0.047,0.047-0.07,0.106-0.07,0.177c0,0.133,0.016,0.279,0.05,0.44
		c0.036,0.161,0.078,0.312,0.127,0.455c0.053,0.146,0.109,0.268,0.172,0.37s0.123,0.151,0.178,0.151
		c0.182,0,0.346-0.039,0.494-0.117c0.146-0.075,0.255-0.206,0.322-0.385c0.361-0.513,0.758-0.994,1.189-1.441
		c0.43-0.448,0.861-0.838,1.29-1.171c0.433-0.336,0.843-0.601,1.233-0.799c0.391-0.195,0.721-0.294,0.994-0.294
		c0.169,0,0.297,0.054,0.383,0.161c0.083,0.106,0.143,0.234,0.177,0.385c0.036,0.148,0.052,0.307,0.052,0.476
		c0,0.169,0,0.307,0,0.416c0.021,1.257,0.041,2.436,0.061,3.534s-0.029,2.154-0.146,3.169c-0.117,1.015-0.231,2.03-0.349,3.044
		s-0.346,2.048-0.689,3.099c-0.343,1.051-0.646,2.178-0.908,3.377c-0.263,1.199-0.546,2.498-0.851,3.895
		c-0.096,0.419-0.166,0.833-0.216,1.244c-0.047,0.414-0.07,0.864-0.07,1.353c0,0.25,0.065,0.474,0.198,0.671
		c0.129,0.198,0.309,0.364,0.535,0.502c0.227,0.135,0.484,0.237,0.778,0.305c0.291,0.065,0.591,0.099,0.903,0.099
		c0.262,0,0.535-0.028,0.822-0.081c0.285-0.055,0.554-0.148,0.803-0.278c0.25-0.133,0.467-0.31,0.644-0.539
		c0.179-0.227,0.294-0.521,0.341-0.877c0.271-1.103,0.564-2.308,0.885-3.617c0.317-1.306,0.647-2.654,0.986-4.043
		c0.338-1.387,0.76-2.763,1.262-4.132c0.5-1.366,1.02-2.675,1.559-3.929c0.535-1.254,1.077-2.42,1.621-3.5
		c0.543-1.08,1.072-2.019,1.584-2.82c0.516-0.799,0.994-1.426,1.439-1.879c0.445-0.455,0.84-0.682,1.186-0.682
		c0.42,0,0.758,0.106,1.01,0.323c0.256,0.216,0.451,0.525,0.586,0.931c0.135,0.406,0.224,0.9,0.26,1.486
		c0.037,0.585,0.055,1.247,0.055,1.988c0,1.075-0.127,2.251-0.379,3.528c-0.256,1.278-0.492,2.558-0.717,3.841
		c-0.223,1.283-0.471,2.568-0.744,3.858c-0.272,1.291-0.512,2.459-0.715,3.505c-0.205,1.049-0.38,1.952-0.523,2.711
		c-0.143,0.762-0.102,1.296,0.128,1.608c0,0.466,0.058,0.859,0.172,1.181c0.112,0.323,0.263,0.588,0.447,0.796
		c0.183,0.208,0.397,0.362,0.643,0.458c0.245,0.094,0.491,0.143,0.741,0.143s0.5-0.034,0.75-0.099
		c0.25-0.065,0.486-0.171,0.71-0.314c0.227-0.143,0.422-0.331,0.594-0.565c0.171-0.231,0.299-0.515,0.385-0.851
		c0.229-1.189,0.437-2.428,0.622-3.716c0.185-1.288,0.45-2.654,0.796-4.095c0.349-1.444,0.666-2.839,0.955-4.187
		c0.289-1.348,0.64-2.636,1.057-3.867c0.413-1.231,0.853-2.378,1.319-3.435c0.465-1.062,0.968-1.978,1.504-2.75
		c0.535-0.772,1.104-1.379,1.704-1.818c0.599-0.44,1.235-0.661,1.912-0.661c0.339,0,0.606,0.083,0.812,0.252
		c0.203,0.167,0.359,0.401,0.469,0.705c0.107,0.304,0.18,0.676,0.216,1.111s0.055,0.921,0.055,1.46c0,0.721-0.089,1.563-0.257,2.534
		c-0.172,0.968-0.35,1.952-0.529,2.956c-0.18,1.001-0.358,2.009-0.538,3.018c-0.183,1.01-0.362,2.003-0.536,2.984
		c-0.174,0.979-0.346,1.926-0.508,2.839c-0.164,0.913-0.27,1.772-0.316,2.571c-0.014,0.106-0.023,0.213-0.029,0.323
		c-0.005,0.106-0.008,0.208-0.008,0.304c0,0.859,0.144,1.621,0.43,2.282c0.286,0.663,0.666,1.217,1.145,1.665
		c0.477,0.447,1.023,0.786,1.637,1.012c0.614,0.226,1.244,0.341,1.889,0.341c0.664,0,1.332-0.102,2.006-0.305
		c0.675-0.203,1.341-0.536,1.996-0.994c0.623-0.436,1.23-0.999,1.831-1.674c0.144,0.232,0.274,0.473,0.443,0.685
		c0.557,0.697,1.254,1.254,2.089,1.668c0.836,0.414,1.812,0.619,2.928,0.619c0.715,0,1.424-0.083,2.123-0.25
		c0.697-0.167,1.371-0.388,2.021-0.664c0.443-0.188,0.868-0.401,1.283-0.627c-0.034,0.186-0.07,0.376-0.1,0.539
		c-0.085,0.479-0.127,0.812-0.127,1.002c0,1.717,0.081,3.252,0.242,4.6c0.161,1.351,0.424,2.49,0.785,3.422
		c0.365,0.929,0.841,1.639,1.426,2.128c0.584,0.492,1.294,0.736,2.129,0.736c0.922,0,1.699-0.234,2.337-0.7
		c0.64-0.466,1.171-1.054,1.595-1.764c0.424-0.71,0.758-1.491,1.002-2.344s0.424-1.663,0.539-2.428
		c0.111-0.762,0.184-1.428,0.213-1.996c0.031-0.567,0.044-0.926,0.044-1.083c0-0.884-0.091-1.759-0.278-2.625
		c-0.185-0.864-0.356-1.667-0.516-2.404c-0.223-0.835-0.486-1.642-0.78-2.417c0.716-0.013,1.45-0.083,2.202-0.216
		c0.541-0.09,1.146-0.233,1.793-0.413c0.021,0.844,0.115,1.682,0.312,2.507c0.222,0.931,0.569,1.767,1.046,2.505
		c0.479,0.742,1.09,1.34,1.837,1.801c0.747,0.458,1.645,0.689,2.692,0.689c0.729,0,1.416-0.127,2.062-0.377
		c0.646-0.25,1.238-0.59,1.782-1.02c0.541-0.429,1.025-0.937,1.449-1.522s0.781-1.212,1.074-1.881
		c0.292-0.666,0.516-1.361,0.672-2.076c0.156-0.716,0.231-1.426,0.231-2.131c0-0.965-0.086-1.834-0.257-2.605
		c-0.175-0.77-0.436-1.501-0.781-2.193l0.143-0.198c0.43,0.286,0.945,0.643,1.541,1.067s1.202,0.939,1.818,1.548
		c0.557,0.552,1.082,1.053,1.585,1.517c-0.117,0.704-0.226,1.401-0.315,2.082c-0.102,0.775-0.182,1.515-0.242,2.212
		c-0.059,0.697-0.088,1.312-0.088,1.834c0,0.479,0.026,0.942,0.08,1.389c0.053,0.448,0.162,0.846,0.323,1.2
		c0.161,0.351,0.391,0.632,0.689,0.84c0.297,0.211,0.692,0.315,1.182,0.315c0.214,0,0.411-0.039,0.591-0.117s0.346-0.21,0.502-0.403
		c0.153-0.19,0.307-0.437,0.455-0.742c0.148-0.304,0.307-0.689,0.474-1.155l3.206-8.935h0.285c0.097,0.752,0.222,1.494,0.378,2.23
		c0.153,0.734,0.394,1.395,0.716,1.985s0.757,1.069,1.307,1.434c0.549,0.364,1.271,0.546,2.166,0.546
		c0.503,0,0.994-0.075,1.479-0.224c0.224-0.07,0.429-0.173,0.645-0.257c0.067,0.349,0.137,0.697,0.246,1.035
		c0.285,0.895,0.713,1.684,1.279,2.363c0.562,0.682,1.262,1.226,2.098,1.631c0.835,0.406,1.806,0.609,2.911,0.609
		c0.63,0,1.252-0.099,1.868-0.297c0.614-0.198,1.205-0.453,1.771-0.77c0.568-0.315,1.111-0.676,1.629-1.083
		c0.521-0.406,1-0.825,1.442-1.254c0.229-0.222,0.442-0.476,0.666-0.711c-0.007,0.169-0.026,0.355-0.026,0.513
		c0,0.539,0.058,1.03,0.17,1.478c0.113,0.447,0.301,0.827,0.564,1.137c0.262,0.31,0.605,0.552,1.029,0.726
		c0.425,0.172,0.945,0.26,1.566,0.26c0.693,0,1.424-0.127,2.193-0.377c0.771-0.25,1.525-0.564,2.265-0.939
		c0.741-0.377,1.431-0.789,2.068-1.236c0.64-0.447,1.173-0.869,1.603-1.262v-1.509c0.195,0.785,0.428,1.5,0.711,2.126
		c0.46,1.033,1.037,1.824,1.728,2.373c0.687,0.549,1.483,0.825,2.386,0.825c0.439,0,0.934-0.083,1.479-0.252
		c0.543-0.167,1.165-0.417,1.865-0.752c0.699-0.333,1.496-0.752,2.391-1.251c0.307-0.171,0.646-0.365,0.98-0.556
		c0.246,0.573,0.554,1.076,0.943,1.482c0.416,0.439,0.896,0.778,1.438,1.012c0.544,0.234,1.103,0.351,1.675,0.351
		c0.542,0,1.083-0.086,1.625-0.265c0.543-0.177,1.061-0.403,1.561-0.682c0.5-0.275,0.96-0.588,1.382-0.931
		c0.421-0.341,0.775-0.677,1.063-1.01c0.386,0.958,0.844,1.689,1.375,2.188c0.527,0.505,1.188,0.754,1.982,0.754
		c0.655,0,1.311-0.161,1.97-0.489c0.655-0.325,1.27-0.723,1.845-1.194c0.572-0.471,1.087-0.965,1.548-1.485
		c0.458-0.518,0.825-0.971,1.101-1.358L199.142,25.25z M173.21,11.256c0.258-1.018,0.534-1.952,0.825-2.797
		c0.294-0.848,0.602-1.545,0.918-2.089c0.318-0.544,0.633-0.817,0.945-0.817c0.227,0,0.402,0.047,0.53,0.143
		c0.125,0.094,0.219,0.213,0.278,0.356c0.061,0.141,0.1,0.294,0.117,0.453c0.016,0.162,0.026,0.307,0.026,0.437
		c0,0.377-0.102,0.861-0.308,1.45c-0.203,0.593-0.46,1.226-0.772,1.904c-0.312,0.677-0.661,1.366-1.052,2.069
		c-0.39,0.7-0.765,1.353-1.123,1.954c-0.19-0.019-0.378-0.031-0.557-0.047c-0.18-0.013-0.359-0.026-0.539-0.044
		C172.716,13.265,172.953,12.276,173.21,11.256z M92.283,24.172c0.023-0.364,0.133-0.825,0.334-1.384
		c0.195-0.562,0.369-1.03,0.52-1.41c0.151-0.377,0.347-0.718,0.594-1.015c0.244-0.297,0.552-0.539,0.916-0.726
		c0.367-0.188,0.807-0.281,1.322-0.281c0.285,0,0.53,0.169,0.729,0.507c0.197,0.338,0.297,0.773,0.297,1.296
		c0,0.375-0.211,0.848-0.631,1.418c-0.421,0.573-0.848,1.028-1.285,1.366s-0.91,0.617-1.418,0.833
		c-0.512,0.216-0.98,0.323-1.412,0.323C92.248,24.841,92.26,24.531,92.283,24.172z M105.51,27.565l-0.72-0.732
		c0.052-0.402,0.105-0.811,0.157-1.212C105.154,26.288,105.326,26.921,105.51,27.565z M106.67,36.209
		c-0.028,0.734-0.102,1.421-0.216,2.053c-0.112,0.635-0.286,1.166-0.518,1.595c-0.234,0.432-0.546,0.646-0.939,0.646
		c-0.097,0-0.208-0.058-0.333-0.169c-0.125-0.114-0.25-0.304-0.375-0.572c-0.125-0.271-0.229-0.622-0.314-1.057
		c-0.084-0.437-0.125-0.983-0.125-1.639c0-2.006,0.122-3.95,0.367-5.831c0.105-0.818,0.211-1.625,0.317-2.438
		c0.351-0.329,0.702-0.655,1.038-1.011c0.1,0.353,0.217,0.723,0.31,1.069c0.097,0.468,0.192,0.939,0.286,1.413
		c0.096,0.476,0.192,0.942,0.286,1.405c0.094,0.463,0.159,0.911,0.2,1.348c0.039,0.435,0.061,0.828,0.061,1.173
		C106.715,34.804,106.701,35.475,106.67,36.209z M122.032,25.739c-0.172,0.89-0.403,1.647-0.689,2.274
		c-0.286,0.627-0.62,1.147-1.002,1.559s-0.775,0.617-1.181,0.617c-0.467,0-0.867-0.096-1.2-0.294
		c-0.335-0.198-0.604-0.46-0.807-0.789c-0.202-0.328-0.351-0.713-0.447-1.155c-0.097-0.439-0.144-0.913-0.144-1.413
		c0-0.991,0.097-1.881,0.287-2.67c0.191-0.788,0.452-1.506,0.787-2.157c0.334-0.65,0.722-1.184,1.164-1.603
		c0.441-0.416,0.908-0.627,1.396-0.627c0.37,0,0.688,0.102,0.95,0.305c0.263,0.203,0.476,0.479,0.643,0.825
		c0.169,0.346,0.294,0.754,0.378,1.226c0.082,0.471,0.125,0.983,0.125,1.532C122.293,24.061,122.207,24.852,122.032,25.739z
		 M166.019,28.658c-0.539,0.424-1.069,0.786-1.595,1.083c-0.525,0.299-1.002,0.447-1.432,0.447c-0.372,0-0.617-0.156-0.736-0.474
		c-0.117-0.317-0.177-0.744-0.177-1.277c0-0.549,0.083-1.161,0.255-1.832c0.174-0.671,0.314-1.348,0.427-2.027
		c0.114-0.679,0.325-1.501,0.632-2.466c0.308-0.965,0.539-1.751,0.697-2.365c0.156-0.614,0.297-1.161,0.42-1.64
		c0.121-0.479,0.182-0.851,0.182-1.113c0-0.289-0.082-0.521-0.236-0.701c0.105,0.034,0.221,0.061,0.354,0.079
		c0.648,0.081,1.143,0.148,1.485,0.2c0.344,0.055,0.624,0.104,0.846,0.148c0.224,0.047,0.435,0.096,0.632,0.141
		c0.198,0.047,0.477,0.096,0.838,0.151c-0.105,0.799-0.189,1.605-0.249,2.417c-0.058,0.812-0.086,1.574-0.086,2.292
		c0,1.756,0.107,3.338,0.319,4.759c-0.307,0.258-0.634,0.537-1.001,0.861C167.08,27.797,166.555,28.234,166.019,28.658z
		 M189.124,25.14c-0.05,0.385-0.153,0.867-0.315,1.444c-0.161,0.575-0.375,1.134-0.637,1.676c-0.264,0.541-0.575,1.004-0.932,1.387
		c-0.359,0.385-0.76,0.578-1.202,0.578c-0.276,0-0.503-0.07-0.683-0.211c-0.179-0.143-0.322-0.328-0.432-0.557
		c-0.106-0.227-0.182-0.484-0.223-0.773c-0.043-0.289-0.062-0.588-0.062-0.897c0-0.521,0.069-1.075,0.205-1.668
		c0.138-0.591,0.375-1.277,0.707-2.058c0.336-0.781,0.674-1.439,1.023-1.97c0.346-0.534,0.723-1.007,1.135-1.421
		c0.413-0.414,0.85-0.744,1.316-0.986c0.465-0.242,0.943-0.364,1.434-0.364L189.124,25.14z"/>
</g>
</svg>
